#!OML:ASF E:\VariousWalksJay\Project 1\Capture day 1\Session 1\Actor2.ASF
:FULLY-SPECIFIED
:DEGREES
698
root 4.19442 16.6057 13.9769 30.1424 -47.3766 -10.2665
lowerback 23.5023 -3.42156 6.28947
upperback 13.7492 -3.87389 -2.70561
thorax 1.58732 -1.70539 -5.66212
lowerneck 0.463792 3.66735 5.07885
upperneck -8.00292 4.99163 -1.05522
head -2.45889 2.36319 -1.31146
rclavicle 0 -7.15625e-014
rhumerus -50.4436 21.9491 -93.2959
rradius 84.5517
rwrist 16.244
rhand -48.3636 14.6739
rfingers 7.12502
rthumb -21.0178 -14.2072
lclavicle 0 -7.15625e-014
lhumerus 20.2843 -46.7246 64.0096
lradius 89.9706
lwrist 40.3739
lhand -43.804 2.62777
lfingers 7.12502
lthumb -16.6325 31.9351
rfemur -22.1792 6.51125 22.9852
rtibia 51.4625
rfoot -16.5058 -9.52927
rtoes -29.575
lfemur -57.7107 6.89623 -20.0668
ltibia 33.8308
lfoot -0.360716 2.15471
ltoes -0.389486
699
root 4.1568 16.6283 14.0822 30.5896 -47.5625 -10.5591
lowerback 23.5656 -3.32991 6.32937
upperback 13.7119 -3.74796 -2.701
thorax 1.53236 -1.64418 -5.70578
lowerneck 0.47431 3.65618 5.10047
upperneck -8.06962 4.97637 -1.08788
head -2.48235 2.3546 -1.32719
rclavicle -1.33583e-013 -1.13705e-013
rhumerus -50.2555 22.1386 -93.0858
rradius 84.646
rwrist 16.2016
rhand -48.3601 14.7203
rfingers 7.12502
rthumb -21.0144 -14.1612
lclavicle -1.33583e-013 -1.13705e-013
lhumerus 20.3385 -46.6162 64.0086
lradius 90.0692
lwrist 40.4142
lhand -43.8923 2.65969
lfingers 7.12502
lthumb -16.7175 31.9599
rfemur -22.6581 6.39328 22.7619
rtibia 52.0819
rfoot -15.0105 -8.8505
rtoes -28.8976
lfemur -57.6596 6.97998 -20.0344
ltibia 34.0817
lfoot -0.794951 2.19916
ltoes 0.320326
700
root 4.1216 16.6498 14.1863 31.0671 -47.7767 -10.8766
lowerback 23.6409 -3.23353 6.36184
upperback 13.6734 -3.61721 -2.69781
thorax 1.47151 -1.58145 -5.74765
lowerneck 0.467492 3.64741 5.12268
upperneck -8.154 4.96276 -1.12989
head -2.50832 2.34673 -1.34596
rclavicle 8.11041e-014 7.95139e-016
rhumerus -50.0501 22.3308 -92.8563
rradius 84.7692
rwrist 16.1662
rhand -48.3362 14.7393
rfingers 7.12502
rthumb -20.9914 -14.1447
lclavicle 8.11041e-014 7.95139e-016
lhumerus 20.4379 -46.4912 63.927
lradius 90.2074
lwrist 40.456
lhand -43.9846 2.68597
lfingers 7.12502
lthumb -16.8063 31.9786
rfemur -23.3391 6.26407 22.5208
rtibia 52.9835
rfoot -13.4234 -8.16128
rtoes -27.9912
lfemur -57.6201 7.12192 -20.0289
ltibia 34.3144
lfoot -1.24669 2.20641
ltoes 1.00994
701
root 4.08873 16.6697 14.2887 31.5509 -48.0079 -11.1975
lowerback 23.7395 -3.13907 6.37817
upperback 13.6321 -3.49073 -2.69657
thorax 1.39618 -1.52241 -5.78076
lowerneck 0.450177 3.64288 5.14739
upperneck -8.25447 4.95378 -1.18041
head -2.53739 2.34102 -1.36805
rclavicle 7.95139e-015 4.92986e-014
rhumerus -49.8383 22.5325 -92.616
rradius 84.9271
rwrist 16.1339
rhand -48.2986 14.7304
rfingers 7.12502
rthumb -20.9553 -14.1576
lclavicle 7.95139e-015 4.92986e-014
lhumerus 20.5844 -46.351 63.7535
lradius 90.3882
lwrist 40.5087
lhand -44.075 2.72646
lfingers 7.12502
lthumb -16.8934 32.0117
rfemur -24.2159 6.12703 22.2617
rtibia 54.1713
rfoot -11.8132 -7.48231
rtoes -26.9414
lfemur -57.5922 7.31592 -20.0662
ltibia 34.5374
lfoot -1.71252 2.16463
ltoes 1.67588
702
root 4.05796 16.6876 14.389 32.0297 -48.2513 -11.5093
lowerback 23.8591 -3.04953 6.37133
upperback 13.5897 -3.37381 -2.69779
thorax 1.30865 -1.46992 -5.80061
lowerneck 0.425518 3.6442 5.16979
upperneck -8.37006 4.95192 -1.23478
head -2.56996 2.33874 -1.39125
rclavicle 6.36111e-015 -1.59028e-015
rhumerus -49.6211 22.7515 -92.3693
rradius 85.1247
rwrist 16.1008
rhand -48.2489 14.6994
rfingers 7.12502
rthumb -20.9075 -14.1939
lclavicle 6.36111e-015 -1.59028e-015
lhumerus 20.7803 -46.1855 63.4869
lradius 90.6127
lwrist 40.5704
lhand -44.1632 2.78398
lfingers 7.12502
lthumb -16.9783 32.0619
rfemur -25.2862 5.99565 21.9876
rtibia 55.6443
rfoot -10.2782 -6.81351
rtoes -25.9085
lfemur -57.5836 7.56144 -20.1567
ltibia 34.7622
lfoot -2.19052 2.0648
ltoes 2.31127
703
root 4.02901 16.7029 14.4864 32.4797 -48.4875 -11.7945
lowerback 23.9938 -2.97227 6.35001
upperback 13.557 -3.27523 -2.70515
thorax 1.22227 -1.42701 -5.81472
lowerneck 0.397734 3.65038 5.19511
upperneck -8.50774 4.95658 -1.28876
head -2.60914 2.33914 -1.41539
rclavicle -1.11319e-014 0
rhumerus -49.3903 22.9872 -92.1243
rradius 85.3689
rwrist 16.0617
rhand -48.1855 14.6562
rfingers 7.12502
rthumb -20.8466 -14.2438
lclavicle -1.11319e-014 0
lhumerus 21.0582 -45.9966 63.0886
lradius 90.882
lwrist 40.6554
lhand -44.2463 2.8675
lfingers 7.12502
lthumb -17.0583 32.1386
rfemur -26.5371 5.86689 21.7146
rtibia 57.3954
rfoot -8.89326 -6.19169
rtoes -25.2876
lfemur -57.5955 7.8503 -20.3065
ltibia 35.0026
lfoot -2.67515 1.89243
ltoes 2.92777
704
root 4.0017 16.7151 14.5806 32.8744 -48.7129 -12.0356
lowerback 24.1549 -2.90667 6.31096
upperback 13.5387 -3.19477 -2.72177
thorax 1.13704 -1.39359 -5.8245
lowerneck 0.368464 3.65782 5.22748
upperneck -8.66696 4.96341 -1.33716
head -2.65528 2.33972 -1.43946
rclavicle 3.02153e-014 1.82882e-014
rhumerus -49.1424 23.2326 -91.8828
rradius 85.6631
rwrist 16.011
rhand -48.1128 14.5949
rfingers 7.12502
rthumb -20.7768 -14.3127
lclavicle 3.02153e-014 1.82882e-014
lhumerus 21.4371 -45.7879 62.5425
lradius 91.1991
lwrist 40.7761
lhand -44.3304 2.97861
lfingers 7.12502
lthumb -17.1392 32.2427
rfemur -27.9426 5.75666 21.4347
rtibia 59.4187
rfoot -7.79916 -5.58183
rtoes -24.7979
lfemur -57.6246 8.1758 -20.5228
ltibia 35.274
lfoot -3.16805 1.65462
ltoes 3.53235
705
root 3.97591 16.7234 14.671 33.1966 -48.9238 -12.2229
lowerback 24.3488 -2.85369 6.25274
upperback 13.5374 -3.1339 -2.74777
thorax 1.0526 -1.37043 -5.82874
lowerneck 0.343138 3.66569 5.26426
upperneck -8.84656 4.97166 -1.37899
head -2.70914 2.34016 -1.46282
rclavicle -2.38542e-014 2.70347e-014
rhumerus -48.8752 23.4937 -91.6436
rradius 86.012
rwrist 15.9411
rhand -48.028 14.5208
rfingers 7.12502
rthumb -20.6953 -14.3957
lclavicle -2.38542e-014 2.70347e-014
lhumerus 21.9246 -45.5543 61.8431
lradius 91.564
lwrist 40.938
lhand -44.4111 3.12033
lfingers 7.12502
lthumb -17.2169 32.3776
rfemur -29.4892 5.66038 21.1556
rtibia 61.705
rfoot -7.04106 -5.03181
rtoes -24.607
lfemur -57.672 8.53031 -20.803
ltibia 35.5935
lfoot -3.66792 1.35285
ltoes 4.06206
706
root 3.95164 16.7275 14.7568 33.4398 -49.126 -12.3476
lowerback 24.5722 -2.80806 6.16654
upperback 13.5531 -3.08812 -2.78374
thorax 0.971458 -1.35564 -5.82416
lowerneck 0.331697 3.67132 5.30252
upperneck -9.04802 4.97831 -1.41394
head -2.77328 2.33902 -1.48515
rclavicle -2.22639e-014 5.24792e-014
rhumerus -48.5866 23.7728 -91.4041
rradius 86.4201
rwrist 15.8498
rhand -47.9291 14.4568
rfingers 7.12502
rthumb -20.6003 -14.47
lclavicle -2.22639e-014 5.24792e-014
lhumerus 22.5253 -45.2935 60.9913
lradius 91.9779
lwrist 41.1426
lhand -44.4978 3.29511
lfingers 7.12502
lthumb -17.3004 32.5451
rfemur -31.1757 5.56741 20.8742
rtibia 64.2459
rfoot -6.63504 -4.5762
rtoes -24.6993
lfemur -57.7469 8.90714 -21.146
ltibia 35.9764
lfoot -4.17714 1.00246
ltoes 4.5195
707
root 3.9287 16.7267 14.8385 33.5906 -49.3212 -12.411
lowerback 24.8337 -2.76722 6.0596
upperback 13.5914 -3.05338 -2.83286
thorax 0.896565 -1.34664 -5.81936
lowerneck 0.329502 3.67174 5.35393
upperneck -9.26533 4.97926 -1.44386
head -2.84479 2.33395 -1.50872
rclavicle -2.22639e-014 8.74653e-015
rhumerus -48.2669 24.0613 -91.161
rradius 86.8918
rwrist 15.7381
rhand -47.8043 14.3608
rfingers 7.12502
rthumb -20.4803 -14.579
lclavicle -2.22639e-014 8.74653e-015
lhumerus 23.2514 -45.002 59.9828
lradius 92.44
lwrist 41.3945
lhand -44.5843 3.50462
lfingers 7.12502
lthumb -17.3836 32.7473
rfemur -32.9768 5.4749 20.5935
rtibia 67.0238
rfoot -6.57331 -4.25318
rtoes -24.9418
lfemur -57.8379 9.29383 -21.5387
ltibia 36.4344
lfoot -4.69895 0.616703
ltoes 4.83269
